<svg xmlns="http://www.w3.org/2000/svg" xmlns:xlink="http://www.w3.org/1999/xlink" version="1.1" width="256" height="256" viewBox="0 0 256 256" xml:space="preserve">

<defs>
</defs>
<g style="stroke: none; stroke-width: 0; stroke-dasharray: none; stroke-linecap: butt; stroke-linejoin: miter; stroke-miterlimit: 10; fill: none; fill-rule: nonzero; opacity: 1;" transform="translate(1.4065934065934016 1.4065934065934016) scale(2.81 2.81)" >
	<circle cx="45" cy="45" r="45" style="stroke: none; stroke-width: 1; stroke-dasharray: none; stroke-linecap: butt; stroke-linejoin: miter; stroke-miterlimit: 10; fill: rgb(32,196,203); fill-rule: nonzero; opacity: 1;" transform="  matrix(1 0 0 1 0 0) "/>
	<path d="M 41.846 79.5 c -0.699 0 -1.391 -0.244 -1.944 -0.715 L 18.439 60.527 c -1.262 -1.073 -1.415 -2.967 -0.341 -4.229 c 1.073 -1.262 2.968 -1.414 4.229 -0.341 l 16.519 14.052 v -50.2 c 0 -1.657 1.343 -3 3 -3 s 3 1.343 3 3 V 76.5 c 0 1.17 -0.68 2.232 -1.741 2.724 C 42.702 79.409 42.273 79.5 41.846 79.5 z" style="stroke: none; stroke-width: 1; stroke-dasharray: none; stroke-linecap: butt; stroke-linejoin: miter; stroke-miterlimit: 10; fill: rgb(27,167,173); fill-rule: nonzero; opacity: 1;" transform=" matrix(1 0 0 1 0 0) " stroke-linecap="round" />
	<path d="M 41.845 79.5 c -0.427 0 -0.856 -0.091 -1.258 -0.276 c -1.062 -0.491 -1.741 -1.554 -1.741 -2.724 V 19.809 c 0 -1.657 1.343 -3 3 -3 s 3 1.343 3 3 V 70.01 l 16.52 -14.053 c 1.26 -1.074 3.153 -0.922 4.229 0.342 c 1.073 1.262 0.921 3.155 -0.342 4.229 L 43.79 78.785 C 43.236 79.256 42.544 79.5 41.845 79.5 z" style="stroke: none; stroke-width: 1; stroke-dasharray: none; stroke-linecap: butt; stroke-linejoin: miter; stroke-miterlimit: 10; fill: rgb(27,167,173); fill-rule: nonzero; opacity: 1;" transform=" matrix(1 0 0 1 0 0) " stroke-linecap="round" />
	<path d="M 45.155 76.191 c -0.699 0 -1.391 -0.244 -1.944 -0.715 L 21.748 57.219 c -1.262 -1.073 -1.415 -2.967 -0.341 -4.229 c 1.073 -1.262 2.967 -1.415 4.229 -0.341 L 42.154 66.7 V 16.5 c 0 -1.657 1.343 -3 3 -3 c 1.657 0 3 1.343 3 3 v 56.691 c 0 1.17 -0.68 2.232 -1.741 2.724 C 46.011 76.101 45.582 76.191 45.155 76.191 z" style="stroke: none; stroke-width: 1; stroke-dasharray: none; stroke-linecap: butt; stroke-linejoin: miter; stroke-miterlimit: 10; fill: rgb(255,255,255); fill-rule: nonzero; opacity: 1;" transform=" matrix(1 0 0 1 0 0) " stroke-linecap="round" />
	<path d="M 45.154 76.191 c -0.427 0 -0.856 -0.091 -1.258 -0.276 c -1.062 -0.491 -1.741 -1.554 -1.741 -2.724 V 16.5 c 0 -1.657 1.343 -3 3 -3 c 1.657 0 3 1.343 3 3 v 50.201 l 16.52 -14.053 c 1.259 -1.073 3.153 -0.922 4.229 0.342 c 1.073 1.262 0.921 3.155 -0.342 4.229 L 47.098 75.477 C 46.545 75.947 45.853 76.191 45.154 76.191 z" style="stroke: none; stroke-width: 1; stroke-dasharray: none; stroke-linecap: butt; stroke-linejoin: miter; stroke-miterlimit: 10; fill: rgb(255,255,255); fill-rule: nonzero; opacity: 1;" transform=" matrix(1 0 0 1 0 0) " stroke-linecap="round" />
</g>
</svg>