<svg width="106" height="24" fill="none" xmlns="http://www.w3.org/2000/svg" alt="Sensat"><path d="M97.271 7.32h-2.279V3.909h2.279V0h3.978v3.908H106v3.413h-4.751v10.782c0 1.5.617 2.12 2.301 2.12H106V23.7h-3.154c-3.434 0-5.573-1.5-5.573-5.597L97.271 7.32ZM94.921 12.494c-.05-.431-.128-.858-.233-1.278a10.3 10.3 0 0 0-3.002-5.111 9.917 9.917 0 0 0-1.729-1.277l-.124-.07a9.547 9.547 0 0 0-2.58-.99 9.55 9.55 0 0 0-1.707-.218c-.14-.006-.233 0-.35 0h-.524a9.337 9.337 0 0 0-2.58.51c-.443.154-.875.34-1.291.56a5.267 5.267 0 0 0-.361.205c-.32.188-.63.394-.929.618a10.036 10.036 0 0 0-3.396 4.498 10.648 10.648 0 0 0-.468 1.55 10.828 10.828 0 0 0 .066 4.839 10.29 10.29 0 0 0 1.226 2.941 10.134 10.134 0 0 0 3.87 3.657 9.556 9.556 0 0 0 2.58.91c.427.082.858.136 1.291.16h.889c.122 0 .268-.015.394-.025a9.229 9.229 0 0 0 1.292-.206 9.526 9.526 0 0 0 2.58-.987l.124-.072c.367-.212.72-.449 1.057-.71v1.677h3.98V13.409a11.707 11.707 0 0 0-.075-.915Zm-3.765 1.277a6.49 6.49 0 0 1-.126 1.28 6.306 6.306 0 0 1-1.14 2.554l-.059.078a6.07 6.07 0 0 1-1.238 1.2l-.053.039a5.903 5.903 0 0 1-1.29.69c-.416.16-.85.27-1.29.328-.254.034-.51.052-.765.051-.176 0-.351 0-.525-.025a5.598 5.598 0 0 1-1.29-.27 5.85 5.85 0 0 1-1.29-.616 3.415 3.415 0 0 1-.292-.206c-.365-.264-.7-.57-1-.911-.102-.117-.197-.24-.297-.366a6.256 6.256 0 0 1-1.14-2.555 6.514 6.514 0 0 1 .399-3.834c.197-.455.445-.884.74-1.277a6.096 6.096 0 0 1 1.297-1.277c.096-.07.198-.136.293-.206a5.724 5.724 0 0 1 3.87-.86 5.78 5.78 0 0 1 2.58 1.028l.053.04c.466.335.883.74 1.238 1.199l.06.078a6.305 6.305 0 0 1 1.23 3.151c.023.226.035.453.035.68v.007ZM37.34 15.388A10.556 10.556 0 0 0 35.8 8.07c-1.383-2.147-3.498-3.665-5.914-4.246a9.424 9.424 0 0 0-7.1 1.116c-2.146 1.298-3.738 3.399-4.455 5.876a10.604 10.604 0 0 0 .594 7.466c1.099 2.32 3.001 4.117 5.322 5.029a9.398 9.398 0 0 0 7.18-.122c2.291-.989 4.137-2.85 5.163-5.205h-4.534a5.935 5.935 0 0 1-2.664 1.742 5.726 5.726 0 0 1-3.143.086 5.9 5.9 0 0 1-2.748-1.594 6.285 6.285 0 0 1-1.59-2.83h15.43Zm-15.39-3.404a6.227 6.227 0 0 1 2.153-3.202 5.8 5.8 0 0 1 3.559-1.23 5.8 5.8 0 0 1 3.558 1.23 6.227 6.227 0 0 1 2.153 3.202H21.95ZM55.992 12.403V23.69h-3.979V12.171a4.896 4.896 0 0 0-.316-1.834 4.739 4.739 0 0 0-.972-1.562 4.514 4.514 0 0 0-1.477-1.047 4.355 4.355 0 0 0-3.5 0 4.512 4.512 0 0 0-1.477 1.047c-.42.448-.75.98-.972 1.562a4.892 4.892 0 0 0-.316 1.834v11.518h-3.978V12.403c.034-2.327.943-4.547 2.532-6.18 1.59-1.633 3.73-2.548 5.961-2.548 2.23 0 4.372.915 5.96 2.548 1.59 1.633 2.5 3.853 2.534 6.18ZM4.692 9.41c0-1.374 1.236-2.303 3.595-2.303 2.396 0 3.827 1.234 3.982 3.007h4.41c-.232-4.083-3.402-6.572-8.236-6.572-5.027 0-8.197 2.637-8.197 5.905 0 7.502 12.42 4.526 12.42 8.539 0 1.41-1.353 2.45-3.905 2.45-2.14 0-3.683-1.062-4.13-2.453H0C.524 21.409 4.002 24 8.83 24c5.024 0 8.155-2.6 8.155-6.051-.23-7.39-12.293-4.417-12.293-8.539ZM62.227 9.41c0-1.374 1.236-2.304 3.595-2.304 2.396 0 3.827 1.235 3.983 3.01h4.405c-.232-4.085-3.402-6.582-8.234-6.582-5.027 0-8.197 2.637-8.197 5.905 0 7.502 12.42 4.525 12.42 8.538 0 1.411-1.355 2.45-3.905 2.45-2.141 0-3.683-1.06-4.13-2.45h-4.631c.526 3.423 4.002 6.017 8.83 6.017 5.026 0 8.157-2.602 8.157-6.054-.23-7.382-12.293-4.408-12.293-8.53Z" fill="#000117"></path></svg>
